<?xml version="1.0" encoding="iso-8859-1"?>
<!-- Generator: Adobe Illustrator 19.0.0, SVG Export Plug-In . SVG Version: 6.00 Build 0)  -->
<svg version="1.1" id="Capa_1" xmlns="http://www.w3.org/2000/svg" xmlns:xlink="http://www.w3.org/1999/xlink" x="0px" y="0px"
	 viewBox="0 0 512.001 512.001" style="enable-background:new 0 0 512.001 512.001;" xml:space="preserve">
<path style="fill:#FF904E;" d="M430,400V255.999h60V400c0,5.523-4.477,10-10,10h-40C434.477,410,430,405.523,430,400z"/>
<path style="fill:#FF733D;" d="M489.797,402.016c-0.266,1.302-0.786,2.512-1.505,3.576c-1.797,2.66-4.84,4.409-8.292,4.409h-20
	c5.523,0,10-4.477,10-10V250h20v150C490,400.69,489.93,401.364,489.797,402.016z"/>
<path style="fill:#F53737;" d="M330,502V255.999h60V502c0,5.523-4.477,10-10,10h-40C334.477,512,330,507.523,330,502z"/>
<g>
	<path style="fill:#DB3131;" d="M389.797,504.016c-0.266,1.302-0.786,2.512-1.505,3.576c-1.797,2.66-4.84,4.409-8.292,4.409h-20
		c5.523,0,10-4.477,10-10V260h20v242C390,502.69,389.93,503.364,389.797,504.016z"/>
	<path style="fill:#DB3131;" d="M269.303,463.303l-24,24c-1.464,1.464-3.384,2.197-5.303,2.197s-3.839-0.732-5.303-2.197l-24-24
		c-2.929-2.929-2.929-7.678,0-10.606c2.929-2.929,7.678-2.929,10.606,0l11.197,11.197V400c0-39.977-32.523-72.5-72.5-72.5H30
		c-4.142,0-7.5-3.358-7.5-7.5s3.358-7.5,7.5-7.5h130c48.248,0,87.5,39.252,87.5,87.5v63.894l11.197-11.197
		c2.929-2.929,7.678-2.929,10.606,0C272.232,455.625,272.232,460.375,269.303,463.303z"/>
</g>
<path style="fill:#4A7273;" d="M40,33.002h40c5.523,0,10,4.477,10,10v212H30v-212C30,37.479,34.477,33.002,40,33.002z"/>
<path style="fill:#43545C;" d="M90,43.002V260H70V43.002c0-5.523-4.477-10-10-10h20c3.452,0,6.495,1.749,8.292,4.409
	c0.719,1.064,1.238,2.274,1.505,3.576C89.93,41.638,90,42.311,90,43.002z"/>
<path style="fill:#B1EAD4;" d="M240,90h40c5.523,0,10,4.477,10,10v155.002h-60V100C230,94.477,234.477,90,240,90z"/>
<path style="fill:#A2DAC2;" d="M290,100v160h-20V100c0-5.523-4.477-10-10-10h20c3.452,0,6.495,1.749,8.292,4.409
	c0.719,1.064,1.238,2.274,1.505,3.576C289.93,98.636,290,99.31,290,100z"/>
<path style="fill:#7CC3AC;" d="M140,0h40c5.523,0,10,4.477,10,10v245.002h-60V10C130,4.477,134.477,0,140,0z"/>
<g>
	<path style="fill:#61AE9F;" d="M190,10v250h-20V10c0-5.523-4.477-10-10-10h20c3.452,0,6.495,1.749,8.292,4.409
		c0.719,1.064,1.238,2.274,1.505,3.576C189.93,8.636,190,9.31,190,10z"/>
	<path style="fill:#61AE9F;" d="M487.5,190c0,4.142-3.358,7.5-7.5,7.5h-26c-48.248,0-87.5-39.252-87.5-87.5V46.106l-11.197,11.197
		c-2.929,2.929-7.678,2.929-10.606,0c-2.929-2.929-2.929-7.678,0-10.606l24-24c2.929-2.929,7.678-2.929,10.606,0l24,24
		c2.929,2.929,2.929,7.678,0,10.606C401.84,58.767,399.919,59.5,398,59.5s-3.839-0.732-5.303-2.197L381.5,46.106V110
		c0,39.977,32.523,72.5,72.5,72.5h26C484.142,182.5,487.5,185.858,487.5,190z"/>
</g>
<path style="fill:#C1C1C1;" d="M512,256c0,4.142-3.358,7.5-7.5,7.5H7.5c-4.142,0-7.5-3.358-7.5-7.5s3.358-7.5,7.5-7.5h497
	C508.642,248.5,512,251.858,512,256z"/>
<g>
</g>
<g>
</g>
<g>
</g>
<g>
</g>
<g>
</g>
<g>
</g>
<g>
</g>
<g>
</g>
<g>
</g>
<g>
</g>
<g>
</g>
<g>
</g>
<g>
</g>
<g>
</g>
<g>
</g>
</svg>
