<svg height="512" viewBox="0 0 64 64" width="512" xmlns="http://www.w3.org/2000/svg"><path d="m61.973 17.771v-.01a1 1 0 0 0 -.117-.278c-.015-.024-.033-.044-.05-.067a1.012 1.012 0 0 0 -.146-.161c-.024-.021-.049-.042-.075-.061s-.035-.032-.055-.045a.977.977 0 0 0 -.144-.065c-.023-.009-.043-.022-.067-.03a.994.994 0 0 0 -.3-.051c-.007 0-.012 0-.019 0h-20a1 1 0 0 0 -.447.105l-6.553 3.274v-4.382a1.092 1.092 0 0 0 -.017-.14c0-.017 0-.033 0-.049s-.006-.014-.008-.021a.978.978 0 0 0 -.109-.284c-.012-.022-.027-.039-.041-.06a1 1 0 0 0 -.154-.178.74.74 0 0 0 -.066-.058c-.015-.012-.027-.027-.043-.038a1.045 1.045 0 0 0 -.213-.109h-.009a.992.992 0 0 0 -.3-.053c-.013 0-.025-.007-.038-.007h-20.002a1.012 1.012 0 0 0 -.372.071l-10 4-.008.006a.839.839 0 0 0 -.081.05 1.007 1.007 0 0 0 -.225.151 1.084 1.084 0 0 0 -.079.1 1 1 0 0 0 -.13.193 1.438 1.438 0 0 0 -.091.36c0 .024-.014.044-.014.069v19.997a1 1 0 0 0 1 1h8v7a1 1 0 0 0 1 1h20a.994.994 0 0 0 .347-.07c.023-.008.045-.015.067-.025s.033-.01.048-.018l8-4.174a1 1 0 0 0 .538-.887v-.826h12a.982.982 0 0 0 .419-.1c.009 0 .019 0 .028-.006l8-4a1 1 0 0 0 .553-.894v-20a.987.987 0 0 0 -.024-.189c-.003-.011 0-.027-.003-.04zm-20.737 1.229h15.528l-4 2h-15.528zm-9.472 8h-15.528l4-2h15.528zm-7.764-6.323 8-3.2v5.523h-8zm-10.808-3.677h14.615l-5 2h-14.615zm-9.192 22v-18h18v2h-2a1 1 0 0 0 -.447.105l-8 4a.985.985 0 0 0 -.2.15c-.019.017-.043.026-.06.044a1 1 0 0 0 -.2.3c-.013.03-.016.063-.026.094a.946.946 0 0 0 -.053.264c0 .016-.01.03-.01.047v10.996zm9-10h18v18h-18zm26 14.22-6 3.131v-17.733l6-3zm1.976-19.409c0-.013 0-.027 0-.04v-.01a1 1 0 0 0 -.117-.278c-.015-.024-.033-.044-.05-.067a1.012 1.012 0 0 0 -.146-.161c-.024-.021-.049-.042-.075-.061s-.035-.032-.055-.045a1.027 1.027 0 0 0 -.144-.065c-.023-.01-.043-.022-.066-.03a1.007 1.007 0 0 0 -.3-.051c-.007 0-.012 0-.019 0h11.996v17.997h-11v-17a.987.987 0 0 0 -.024-.189zm19.024 13.571-6 3v-17.764l6-3z"/><path d="m28 41h2v2h-2z"/><path d="m26 43h2v2h-2z"/><path d="m14 31h2v2h-2z"/><path d="m16 33h2v2h-2z"/><path d="m5 26h2v2h-2z"/><path d="m7 22h2v2h-2z"/><path d="m43 34h2v2h-2z"/><path d="m48 38h2v2h-2z"/><path d="m48 31h2v2h-2z"/></svg>